<svg id="Flat" height="512" viewBox="0 0 64 64" width="512" xmlns="http://www.w3.org/2000/svg"><circle cx="32" cy="40" fill="#f8f8fe" r="21"/><path d="m32 19a20.989 20.989 0 0 0 -20.669 17.4 17 17 0 1 1 15.669 23.6c-.547 0-1.087-.031-1.621-.082a21 21 0 1 0 6.621-40.918z" fill="#e3e3ff"/><g fill="#b1a6d8"><path d="m32 57a3 3 0 1 1 3-3 3 3 0 0 1 -3 3zm0-4a1 1 0 1 0 1 1 1 1 0 0 0 -1-1z"/><path d="m42.606 43.394a15 15 0 0 0 -21.212 0l-1.415-1.415a17 17 0 0 1 24.042 0z"/><path d="m39.071 46.929a10 10 0 0 0 -14.142 0l-1.414-1.414a12 12 0 0 1 16.97 0z"/><path d="m35.536 50.465a5 5 0 0 0 -7.072 0l-1.414-1.414a7 7 0 0 1 9.9 0z"/></g><path d="m45.974 41h6.976c.015-.334.05-.662.05-1s-.035-.666-.05-1h-6.976a21.567 21.567 0 0 0 -1.155-6h6.96a20.857 20.857 0 0 0 -.827-2h-6.934a21.565 21.565 0 0 0 -4.953-6.839l-5.506-5.082c-.517-.038-1.033-.079-1.559-.079s-1.042.041-1.559.079l-5.506 5.082a21.565 21.565 0 0 0 -4.953 6.839h-6.934a20.857 20.857 0 0 0 -.827 2h6.96a21.567 21.567 0 0 0 -1.155 6h-6.976c-.015.334-.05.662-.05 1s.035.666.05 1h6.976a21.6 21.6 0 0 0 1.956 8h-6.934a20.956 20.956 0 0 0 1.088 2h6.9a21.514 21.514 0 0 0 3.9 4.839l5.506 5.082c.517.038 1.033.079 1.559.079s1.042-.041 1.559-.079l5.506-5.082a21.514 21.514 0 0 0 3.903-4.839h6.895a20.956 20.956 0 0 0 1.088-2h-6.934a21.6 21.6 0 0 0 1.956-8zm-12.974-19.716 4.708 4.346a19.5 19.5 0 0 1 4.066 5.37h-8.774zm-6.708 4.346 4.708-4.346v9.716h-8.774a19.5 19.5 0 0 1 4.066-5.37zm11.416 28.74-5.708 5.269-5.708-5.269a19.422 19.422 0 0 1 -4.964-21.37h9.672v2h2v-2h9.672a19.422 19.422 0 0 1 -4.964 21.37z" fill="#fff"/><path d="m41 9v14l-9 4-9-4v-14z" fill="#376de3"/><path d="m41 9v14l-9 4-9-4a9 9 0 0 0 9-9v-5z" fill="#235cc1"/><path d="m19 19-3-3v-7h-2v7l-3 3z" fill="#f8cc5c"/><path d="m49 9-17 6-17-6 17-6z" fill="#2298d1"/></svg>